<?xml version="1.0" standalone="no"?><!DOCTYPE svg PUBLIC "-//W3C//DTD SVG 1.1//EN" "http://www.w3.org/Graphics/SVG/1.1/DTD/svg11.dtd"><svg t="1700029146868" class="icon" viewBox="0 0 1024 1024" version="1.1" xmlns="http://www.w3.org/2000/svg" p-id="7368" xmlns:xlink="http://www.w3.org/1999/xlink" width="81" height="81"><path d="M795.52 175.146667c-67.754667-71.04-159.232-109.952-258.56-109.952h-18.730667l-6.741333 0.213333c-192.256 7.210667-340.992 171.818667-339.328 380.586667-1.194667 1.152-30.592 39.893333-53.674667 70.272l-26.24 34.56c-15.189333 19.712-23.338667 37.546667-23.04 54.229333 0.725333 47.104 30.165333 68.181333 89.216 81.194667l22.186667 4.650666 8.064 168.533334 0.213333 4.266666c2.986667 42.24 38.954667 76.16 81.493334 76.16 4.565333 0 135.594667-16.64 198.997333-27.776v-89.173333c-43.690667 6.144-140.501333 20.053333-196.821333 29.269333l-10.069334-203.818666-0.085333-1.706667a63.872 63.872 0 0 0-0.981333-9.173333 28.288 28.288 0 0 0-4.309334-11.392c-4.565333-6.272-10.154667-10.624-17.322666-10.624a1435.562667 1435.562667 0 0 1-47.786667-7.850667l-5.845333-1.066667-2.133334-0.512a17.664 17.664 0 0 1-8.490666-28.032c41.386667-51.157333 64.597333-79.189333 69.546666-84.224 9.984-9.898667 12.714667-19.712 12.714667-38.058666 0-2.133333-0.085333-4.096-0.384-7.04a47.189333 47.189333 0 0 1-0.341333-4.181334c-1.365333-79.146667 26.794667-149.12 77.653333-205.013333a267.434667 267.434667 0 0 1 198.101333-88.192h4.138667l6.656 0.085333c152.917333 3.584 269.226667 127.146667 271.189333 290.261334l-0.085333 6.357333h86.485333v-7.125333c-1.493333-101.802667-38.954667-196.48-105.685333-265.728zM853.333333 874.666667L730.154667 512h-74.154667L533.333333 874.666667h70.954667l25.301333-85.973334h126.549334l25.301333 85.973334H853.333333z m85.333334-362.666667v362.666667h-64V512H938.666667z m-287.786667 213.333333c26.666667-95.274667 40.533333-145.066667 41.514667-149.333333 1.024 4.266667 15.146667 54.058667 42.453333 149.333333h-83.968z" p-id="7369" fill="#707070"></path></svg>